# xmcd CD database file
#
# Track frame offsets:
#	150
#	11488
#	21526
#	35572
#	46322
#	57210
#	67161
#	79188
#	91396
#	104378
#	116691
#	129453
#	139561
#	150121
#	161839
#	173027
#	184329
#	198102
#	209032
#	222232
#
# Disc length: 3094 seconds
#
# Revision: 1
# Processed by: cddbd v1.5.2PL0 Copyright (c) Steve Scherf et al.
# Submitted via: CDex 1.51
#
DISCID=1c0c1414
DTITLE=Hank Thompson - 20 Greatest Hits
DYEAR=1987
DGENRE=Country
TTITLE0=Squaws Along The Yukon
TTITLE1=Rub-A-Dub-Dub
TTITLE2=Blackboard Of My Heart
TTITLE3=The New Green Light
TTITLE4=The Older The Violin The Sweeter The Music
TTITLE5=A Six Pack To Go
TTITLE6=Who Left The Door To Heaven Open
TTITLE7=I've Come Awful Close
TTITLE8=Anybody's Girl
TTITLE9=Tears Are Only Rain
TTITLE10=Wild Side Of Life
TTITLE11=Humpty Dumpty Heart
TTITLE12=Wake Up Irene
TTITLE13=Smokey The Bar
TTITLE14=Okahoma Hills
TTITLE15=On Tap, In The Can, Or In The Bottle
TTITLE16=Yesterday's Girl
TTITLE17=Honky Tonk Girl
TTITLE18=We've Gone Too Far
TTITLE19=Cab Driver
EXTD=YEAR: 1987
EXTT0=
EXTT1=
EXTT2=
EXTT3=
EXTT4=
EXTT5=
EXTT6=
EXTT7=
EXTT8=
EXTT9=
EXTT10=
EXTT11=
EXTT12=
EXTT13=
EXTT14=
EXTT15=
EXTT16=
EXTT17=
EXTT18=
EXTT19=
PLAYORDER=
